<svg xmlns="http://www.w3.org/2000/svg" width="44" height="44" viewBox="0 0 44 44">
  <g fill="#BE0028" fill-rule="evenodd" transform="translate(.057 .057)">
    <path d="M17.9681499 24.412608C17.5618231 24.412608 17.2042642 24.36384 16.7167488 24.2500663L16.7167488 19.8322011C17.1202231 19.7393829 17.5200768 19.6668617 17.9681499 19.6668617 19.1870208 19.6668617 19.7721271 20.2194377 19.7721271 22.0397074 19.7721271 23.860032 19.1870208 24.412608 17.9681499 24.412608M18.3257088 17.749056C17.7904677 17.749056 17.2150711 17.8440137 16.7167488 17.9506011L16.7167488 13.539648 14.4739145 13.7834331 14.4739145 25.7616C15.4002871 26.0541531 16.6029202 26.3304137 17.7893705 26.3304137 20.4871899 26.3304137 22.0799671 25.4202789 22.0799671 22.0397074 22.0799671 18.6591909 20.4871899 17.749056 18.3257088 17.749056M26.8255707 21.0483237C25.8667227 21.0320859 25.2653787 21.0158482 25.2653787 20.4957477 25.2653787 19.8131054 25.6716507 19.6668562 26.9068142 19.6668562 27.6544073 19.6668562 28.7107913 19.8131054 29.377141 19.9756471L29.1983616 18.1229019C28.3369947 17.8628791 27.3781467 17.7490505 26.7443273 17.7490505 24.046453 17.7490505 23.0063067 18.7242459 23.0063067 20.5607534 23.0063067 22.3323099 24.095221 22.7873499 25.9316736 22.8198802 27.1181239 22.8361179 27.7357056 22.8036425 27.7357056 23.5837659 27.7357056 24.2663534 27.1993125 24.4126025 26.0454473 24.4126025 24.7615159 24.4126025 23.8514359 24.2175854 23.1850862 24.0063305L23.3638656 25.8590757C24.2252325 26.1679214 25.0378313 26.3304082 26.2242267 26.3304082 29.1008805 26.3304082 29.9947227 25.3552677 29.9947227 23.6000037 29.9947227 21.3896448 28.5482496 21.0808539 26.8255707 21.0483237M10.8659218 24.3476242C10.5733687 24.3963922 10.1833893 24.4613431 9.77700754 24.4613431 8.80192183 24.4613431 8.39559497 24.1525522 8.39559497 23.4862574 8.39559497 22.7873774 8.78562926 22.6735488 9.59828297 22.6248357L10.8659218 22.5435922 10.8659218 24.3476242zM9.46821669 17.7490779C8.75315383 17.7490779 7.79430583 17.8628517 6.93293897 18.1228745L6.75415954 19.9756745C7.46927726 19.8131328 8.52566126 19.6668837 9.2244864 19.6668837 10.3946441 19.6668837 10.8659218 19.7643648 10.8659218 20.7070299L10.8659218 20.9671077 9.30572983 21.0482962C7.58299611 21.1458322 6.13657783 21.4384402 6.13657783 23.5999762 6.13657783 25.3552402 7.03042011 26.3304357 9.7282944 26.3304357 10.9796955 26.3304357 12.1823835 26.0541202 13.1087561 25.7615671L13.1087561 20.5607808C13.1087561 18.7242185 12.0848475 17.7490779 9.46821669 17.7490779zM35.683019 24.3476242C35.390411 24.3963922 35.0004315 24.4613431 34.5940498 24.4613431 33.6189641 24.4613431 33.2126373 24.1525522 33.2126373 23.4862574 33.2126373 22.7873774 33.6027264 22.6735488 34.4153253 22.6248357L35.683019 22.5435922 35.683019 24.3476242zM34.2853138 17.7490779C33.5701961 17.7490779 32.6113481 17.8628517 31.7499813 18.1228745L31.5712018 19.9756745C32.2862647 19.8131328 33.3427035 19.6668837 34.0414738 19.6668837 35.2116864 19.6668837 35.683019 19.7643648 35.683019 20.7070299L35.683019 20.9671077 34.122827 21.0482962C32.4000384 21.1458322 30.9536201 21.3896174 30.9536201 23.5999762 30.9536201 25.3552402 31.8474624 26.3304357 34.5453367 26.3304357 35.7967378 26.3304357 36.999371 26.0541202 37.9257984 25.7615671L37.9257984 20.5607808C37.9257984 18.7242185 36.9018898 17.7490779 34.2853138 17.7490779z"/>
    <path d="M39.1671442,29.9747163 L41.8331465,31.2178341 C38.3379237,38.7003483 30.7465728,43.8857198 21.9428791,43.8857198 C13.1391305,43.8857198 5.54777966,38.7003483 2.05261166,31.2178341 L4.71855909,29.9747163 C7.74524709,36.4542775 14.3191077,40.9446638 21.9428791,40.9446638 C29.5665408,40.9446638 36.1404562,36.4542775 39.1671442,29.9747163 Z M39.8031744,28.4434834 C40.5414967,26.4154149 40.9446418,24.2262309 40.9446418,21.9428571 C40.9446418,19.6594834 40.5414967,17.4702994 39.8031744,15.4422309 L42.5675904,14.4360411 C43.420235,16.7780571 43.8856978,19.3060937 43.8856978,21.9428571 C43.8856978,24.5796206 43.420235,27.1076571 42.5675904,29.4496731 L39.8031744,28.4434834 Z M2.94104503,21.9428571 C2.94104503,24.2262309 3.34413531,26.4154149 4.08251246,28.4434834 L1.31815131,29.4496183 C0.465506743,27.1076571 -1.09714285e-05,24.5796206 -1.09714285e-05,21.9428571 C-1.09714285e-05,19.3060937 0.465506743,16.7780571 1.31815131,14.436096 L4.08251246,15.4422309 C3.34413531,17.4702994 2.94104503,19.6594834 2.94104503,21.9428571 Z M21.9428571,2.94107246 C14.3190857,2.94107246 7.74522514,7.43140389 4.71853714,13.9110199 L2.05258971,12.6679022 C5.54775771,5.18538789 13.1391634,1.64571429e-05 21.9428571,1.64571429e-05 C30.7465509,1.64571429e-05 38.3379017,5.18538789 41.8331246,12.6679022 L39.1671223,13.9110199 C36.1404891,7.43140389 29.5665737,2.94107246 21.9428571,2.94107246 Z"/>
  </g>
</svg>
